<?xml version="1.0" encoding="UTF-8"?>
<!-- Generator: Adobe Illustrator 28.0.0, SVG Export Plug-In . SVG Version: 6.00 Build 0)  -->
<svg xmlns="http://www.w3.org/2000/svg" xmlns:xlink="http://www.w3.org/1999/xlink" version="1.1" id="Layer_1" x="0px" y="0px" viewBox="0 0 288 144" style="enable-background:new 0 0 288 144;" xml:space="preserve">
<style type="text/css">
	.st0{fill:#FFFFFF;}
	.st1{fill:none;}
	.st2{fill:#FFFFFF;stroke:#FFFFFF;stroke-width:8.224082e-02;stroke-miterlimit:10;}
</style>
<path id="logoMark__x3C_CompoundPathItem_x3E__27_" class="st0" d="M185.5,46.4h-38.4V96h38.4V46.4z M174.5,84.2l-3.5-3.5  c-1.2,1.3-2.5,2.4-3.9,3.1c-1.4,0.7-3,1.1-4.9,1.1c-1.6,0-3-0.2-4.2-0.6c-1.2-0.4-2.2-1-2.9-1.7c-0.8-0.7-1.3-1.5-1.7-2.4  c-0.4-0.9-0.5-1.8-0.5-2.8c0-0.9,0.2-1.8,0.5-2.5c0.4-0.8,0.8-1.4,1.4-2.1c0.6-0.6,1.3-1.2,2.1-1.7c0.8-0.5,1.6-0.9,2.5-1.3  c-0.9-0.9-1.7-1.8-2.4-2.7c-0.7-0.9-1-2.1-1-3.3c0-1,0.2-1.9,0.6-2.6c0.4-0.8,1-1.4,1.7-1.9c0.7-0.5,1.5-0.9,2.4-1.2  c0.9-0.3,1.9-0.4,2.9-0.4c1,0,1.9,0.1,2.9,0.4c0.9,0.2,1.7,0.6,2.4,1.1c0.7,0.5,1.2,1.1,1.6,1.9c0.4,0.7,0.6,1.6,0.6,2.6  c0,0.8-0.2,1.6-0.5,2.2c-0.4,0.7-0.8,1.3-1.4,1.9c-0.6,0.6-1.2,1.1-1.9,1.5c-0.7,0.4-1.4,0.8-2.1,1.2l5.7,5.4l3.6-5.4h4.4l-5.5,7.9  l6.5,6.1H174.5z"></path>
<path id="logoMark__x3C_CompoundPathItem_x3E__26_" class="st0" d="M147.1,32.9l-109,0v13.5V96v13h27.6V96V47l12.9,0l0.1,49l0,13  l27.8,0l0-13l0.1-49l12.9,0v49v13h27.6V96V46.4V32.9z M145.7,107.5h-24.8V46.6h-15.6v60.9H79.8V46.6H64.2v60.9H39.4V46.6V34.3v0  h40.4h25.4h15.6h24.6h0.2V107.5z"></path>
<path id="logoMark__x3C_CompoundPathItem_x3E__25_" class="st0" d="M66.4,109.6H37.5V32.3l110.2,0v77.3h-28.8v-62l-11.6,0l-0.1,62  l-29,0l-0.1-62l-11.6,0V109.6z M38.8,108.4h26.4V47.2h-0.3v60.9h-26V33.7l0.6,0h106.8v74.5h-26V47.2h-0.1v61.1h26.4V33.5l-107.8,0  V108.4z M79.4,108.1l0,0.2l26.6,0l0.1-61.1h-0.2v60.9H79.4z M40,106.9h23.6V46h16.8v60.9h24.2V46h16.9v60.9H145v-72H40V106.9z"></path>
<a>
	<polygon class="st1" points="39.2,107.5 64.1,107.5 64.1,46.8 80.1,46.8 80.1,107.5 104.5,107.5 104.5,46.8 121.6,46.8    121.6,107.5 145.5,107.5 145.5,34.5 39.2,34.5  "></polygon>
</a>
<a>
	<polygon class="st1" points="213.6,132 255,132 282.4,104.4 282.4,96.7 235,96.7 220.6,83.5 221.6,59.4 235,46.2 282.4,46.2    282.4,38.5 255,10.9 213.6,10.9 185.5,40.1 185.5,102.8  "></polygon>
</a>
<a>
	<polygon id="logoMark__x3C_PathItem_x3E__41_" points="105.5,109 105.5,109 105.6,109  "></polygon>
</a>
<path id="logoMark__x3C_CompoundPathItem_x3E__29_" class="st0" d="M255.5,133.2h-42.6L184,103.1V40l28.9-30.1h42.6l28.2,28.5v9.5  H236L222.7,61v21L236,95.1h47.7v9.5L255.5,133.2z M214.1,130.3h40.2l26.6-26.8V98h-46l-15-14.8V59.8l15-14.8h46v-5.5l-26.6-26.8  h-40.2l-27.3,28.4v60.8L214.1,130.3z"></path>
<a>
	<path id="logoMark__x3C_PathItem_x3E__39_" class="st0" d="M160,72.8c-0.6,0.3-1.1,0.7-1.6,1.1c-0.5,0.4-0.8,0.9-1.1,1.4   c-0.3,0.5-0.4,1.1-0.4,1.8c0,0.6,0.2,1.2,0.4,1.8c0.3,0.6,0.7,1,1.2,1.5c0.5,0.4,1.1,0.7,1.7,1c0.6,0.2,1.3,0.4,2,0.4   c0.7,0,1.4-0.1,2-0.3c0.6-0.2,1.2-0.5,1.7-0.8c0.5-0.3,1-0.7,1.5-1.1c0.4-0.4,0.9-0.8,1.2-1.2l-6.9-6.6   C161.2,72.1,160.6,72.4,160,72.8z"></path>
</a>
<a>
	<path id="logoMark__x3C_PathItem_x3E__38_" class="st0" d="M160.8,66.1c0.3,0.4,0.6,0.7,0.9,1c0.3,0.3,0.6,0.6,1,0.9   c0.5-0.2,1-0.5,1.5-0.8c0.5-0.3,1-0.6,1.4-1c0.4-0.4,0.8-0.8,1.1-1.2c0.3-0.5,0.4-1,0.4-1.6c0-0.9-0.3-1.6-1-2.1   c-0.6-0.5-1.5-0.8-2.5-0.8c-1,0-1.9,0.3-2.7,0.8c-0.8,0.5-1.1,1.3-1.1,2.3c0,0.4,0.1,0.9,0.3,1.3C160.3,65.3,160.5,65.7,160.8,66.1   z"></path>
</a>
<a>
	<path id="logoMark__x3C_PathItem_x3E__37_" class="st0" d="M22.2,46.4c-9.8,0-17.8,8-17.8,17.8v14c0,9.8,8,17.8,17.8,17.8h15.9   V46.4H22.2z"></path>
</a>
<a>
	<polygon id="logoMark__x3C_PathItem_x3E__36_" class="st0" points="106.7,47 106.6,96 119.5,96 119.5,47  "></polygon>
</a>
<a>
	<polygon id="logoMark__x3C_PathItem_x3E__35_" class="st0" points="65.8,47 65.8,96 78.7,96 78.6,47  "></polygon>
</a>
<g id="type_5_">
	<a>
		<polygon id="type__x3C_PathItem_x3E__71_" class="st0" points="40.7,119.4 43.1,119.4 46.8,127.6 46.9,127.6 50.6,119.4 53,119.4     53,130.2 51.4,130.2 51.4,121.3 51.4,121.3 47.4,130.2 46.3,130.2 42.3,121.3 42.3,121.3 42.3,130.2 40.7,130.2   "></polygon>
	</a>
	<path id="type__x3C_CompoundPathItem_x3E__17_" class="st0" d="M66.2,130.2H64l-1.4-1.4c-0.5,0.5-1,1-1.6,1.3   c-0.6,0.3-1.2,0.4-2,0.4c-0.7,0-1.2-0.1-1.7-0.3c-0.5-0.2-0.9-0.4-1.2-0.7c-0.3-0.3-0.5-0.6-0.7-1c-0.1-0.4-0.2-0.8-0.2-1.1   c0-0.4,0.1-0.7,0.2-1c0.1-0.3,0.3-0.6,0.6-0.8c0.2-0.3,0.5-0.5,0.9-0.7c0.3-0.2,0.7-0.4,1-0.5c-0.4-0.4-0.7-0.7-1-1.1   c-0.3-0.4-0.4-0.8-0.4-1.4c0-0.4,0.1-0.8,0.3-1.1c0.2-0.3,0.4-0.6,0.7-0.8c0.3-0.2,0.6-0.4,1-0.5c0.4-0.1,0.8-0.2,1.2-0.2   c0.4,0,0.8,0.1,1.2,0.2c0.4,0.1,0.7,0.3,1,0.5c0.3,0.2,0.5,0.5,0.7,0.8c0.2,0.3,0.2,0.7,0.2,1.1c0,0.3-0.1,0.6-0.2,0.9   c-0.1,0.3-0.3,0.5-0.6,0.8c-0.2,0.2-0.5,0.4-0.8,0.6c-0.3,0.2-0.6,0.3-0.9,0.5l2.3,2.2l1.5-2.2h1.8l-2.3,3.2L66.2,130.2z    M58.8,125.1c-0.2,0.1-0.5,0.3-0.7,0.4c-0.2,0.1-0.5,0.3-0.6,0.5c-0.2,0.2-0.3,0.4-0.5,0.6c-0.1,0.2-0.2,0.5-0.2,0.7   c0,0.3,0.1,0.5,0.2,0.7c0.1,0.2,0.3,0.4,0.5,0.6c0.2,0.2,0.4,0.3,0.7,0.4c0.3,0.1,0.5,0.1,0.8,0.1c0.3,0,0.6,0,0.8-0.1   c0.3-0.1,0.5-0.2,0.7-0.3c0.2-0.1,0.4-0.3,0.6-0.4c0.2-0.2,0.4-0.3,0.5-0.5L58.8,125.1z M61,121.7c0-0.4-0.1-0.6-0.4-0.8   c-0.3-0.2-0.6-0.3-1-0.3c-0.4,0-0.8,0.1-1.1,0.3c-0.3,0.2-0.5,0.5-0.5,0.9c0,0.2,0,0.4,0.1,0.5c0.1,0.2,0.2,0.3,0.3,0.5   c0.1,0.2,0.2,0.3,0.4,0.4c0.1,0.1,0.3,0.3,0.4,0.4c0.2-0.1,0.4-0.2,0.6-0.3c0.2-0.1,0.4-0.3,0.6-0.4c0.2-0.2,0.3-0.3,0.4-0.5   C60.9,122.1,61,121.9,61,121.7"></path>
	<a>
		<path id="type__x3C_PathItem_x3E__70_" class="st0" d="M76,121.7c-0.3-0.4-0.8-0.7-1.3-0.9c-0.5-0.2-1-0.3-1.6-0.3    c-0.7,0-1.3,0.1-1.8,0.3c-0.5,0.2-1,0.5-1.4,0.9c-0.4,0.4-0.7,0.9-0.9,1.4c-0.2,0.5-0.3,1.1-0.3,1.7c0,0.6,0.1,1.1,0.3,1.6    c0.2,0.5,0.5,1,0.9,1.3c0.4,0.4,0.8,0.7,1.4,0.9c0.5,0.2,1.2,0.3,1.8,0.3c0.7,0,1.3-0.1,1.8-0.4c0.5-0.3,0.9-0.6,1.3-1.1l1.3,0.9    c-0.1,0.1-0.2,0.3-0.5,0.5c-0.2,0.2-0.5,0.4-0.9,0.6c-0.4,0.2-0.8,0.4-1.3,0.5c-0.5,0.2-1.1,0.2-1.8,0.2c-0.9,0-1.8-0.2-2.5-0.5    c-0.7-0.3-1.4-0.8-1.9-1.3c-0.5-0.5-0.9-1.1-1.2-1.8c-0.3-0.7-0.4-1.3-0.4-2c0-0.8,0.1-1.6,0.4-2.3c0.3-0.7,0.7-1.3,1.3-1.8    c0.5-0.5,1.2-0.9,1.9-1.2c0.8-0.3,1.6-0.4,2.5-0.4c0.8,0,1.5,0.1,2.3,0.4c0.8,0.3,1.4,0.7,1.8,1.3L76,121.7z"></path>
	</a>
	<path id="type__x3C_CompoundPathItem_x3E__16_" class="st0" d="M87.7,119.4h1.4l5,10.8h-1.9l-1.2-2.7h-5.6l-1.2,2.7h-1.9   L87.7,119.4z M90.5,126.3l-2.2-5h0l-2.2,5H90.5z"></path>
	<a>
		<path id="type__x3C_PathItem_x3E__69_" class="st0" d="M96,128c0.3,0.4,0.7,0.7,1.1,0.9c0.4,0.2,0.9,0.3,1.4,0.3    c0.3,0,0.5,0,0.8-0.1c0.3-0.1,0.5-0.2,0.8-0.3c0.2-0.2,0.4-0.3,0.6-0.6c0.1-0.2,0.2-0.5,0.2-0.8c0-0.4-0.1-0.7-0.4-1    c-0.3-0.2-0.6-0.4-1.1-0.6c-0.4-0.1-0.9-0.3-1.4-0.4c-0.5-0.1-1-0.3-1.4-0.6c-0.4-0.2-0.8-0.6-1.1-1c-0.3-0.4-0.4-1-0.4-1.7    c0-0.3,0.1-0.7,0.2-1c0.2-0.4,0.4-0.7,0.7-1c0.3-0.3,0.7-0.5,1.2-0.7c0.5-0.2,1.1-0.3,1.8-0.3c0.6,0,1.3,0.1,1.8,0.2    c0.6,0.2,1.1,0.5,1.5,1l-1.3,1.1c-0.2-0.3-0.5-0.5-0.8-0.7c-0.4-0.2-0.8-0.3-1.2-0.3c-0.4,0-0.8,0.1-1.1,0.2    c-0.3,0.1-0.5,0.2-0.7,0.4c-0.2,0.2-0.3,0.4-0.4,0.5s-0.1,0.4-0.1,0.5c0,0.5,0.1,0.8,0.4,1.1c0.3,0.2,0.6,0.4,1.1,0.6    c0.4,0.2,0.9,0.3,1.4,0.4c0.5,0.1,1,0.3,1.4,0.5c0.4,0.2,0.8,0.5,1.1,0.9c0.3,0.4,0.4,0.9,0.4,1.5c0,0.5-0.1,1-0.3,1.4    c-0.2,0.4-0.5,0.8-0.9,1.1c-0.4,0.3-0.8,0.5-1.3,0.7c-0.5,0.2-1,0.2-1.6,0.2c-0.8,0-1.5-0.1-2.1-0.4c-0.7-0.2-1.2-0.6-1.6-1.1    L96,128z"></path>
	</a>
	<a>
		<path id="type__x3C_PathItem_x3E__68_" class="st0" d="M105.1,128c0.3,0.4,0.7,0.7,1.1,0.9c0.4,0.2,0.9,0.3,1.4,0.3    c0.3,0,0.5,0,0.8-0.1c0.3-0.1,0.5-0.2,0.8-0.3c0.2-0.2,0.4-0.3,0.6-0.6c0.1-0.2,0.2-0.5,0.2-0.8c0-0.4-0.1-0.7-0.4-1    c-0.3-0.2-0.6-0.4-1.1-0.6c-0.4-0.1-0.9-0.3-1.4-0.4c-0.5-0.1-1-0.3-1.4-0.6c-0.4-0.2-0.8-0.6-1.1-1c-0.3-0.4-0.4-1-0.4-1.7    c0-0.3,0.1-0.7,0.2-1c0.2-0.4,0.4-0.7,0.7-1c0.3-0.3,0.7-0.5,1.2-0.7c0.5-0.2,1.1-0.3,1.8-0.3c0.6,0,1.3,0.1,1.8,0.2    c0.6,0.2,1.1,0.5,1.5,1l-1.3,1.1c-0.2-0.3-0.5-0.5-0.8-0.7c-0.4-0.2-0.8-0.3-1.2-0.3c-0.4,0-0.8,0.1-1.1,0.2    c-0.3,0.1-0.5,0.2-0.7,0.4c-0.2,0.2-0.3,0.4-0.4,0.5s-0.1,0.4-0.1,0.5c0,0.5,0.1,0.8,0.4,1.1c0.3,0.2,0.6,0.4,1.1,0.6    c0.4,0.2,0.9,0.3,1.4,0.4c0.5,0.1,1,0.3,1.4,0.5c0.4,0.2,0.8,0.5,1.1,0.9c0.3,0.4,0.4,0.9,0.4,1.5c0,0.5-0.1,1-0.3,1.4    c-0.2,0.4-0.5,0.8-0.9,1.1c-0.4,0.3-0.8,0.5-1.3,0.7c-0.5,0.2-1,0.2-1.6,0.2c-0.8,0-1.5-0.1-2.1-0.4c-0.7-0.2-1.2-0.6-1.6-1.1    L105.1,128z"></path>
	</a>
	<a>
		<polygon id="type__x3C_PathItem_x3E__67_" class="st0" points="114,119.4 121.6,119.4 121.6,120.8 115.6,120.8 115.6,124     121.2,124 121.2,125.4 115.6,125.4 115.6,128.8 121.9,128.8 121.9,130.2 114,130.2   "></polygon>
	</a>
	<a>
		<polygon id="type__x3C_PathItem_x3E__66_" class="st0" points="123.9,119.4 126.3,119.4 130.1,127.6 130.1,127.6 133.8,119.4     136.2,119.4 136.2,130.2 134.6,130.2 134.6,121.3 134.6,121.3 130.6,130.2 129.6,130.2 125.6,121.3 125.5,121.3 125.5,130.2     123.9,130.2   "></polygon>
	</a>
	<path id="type__x3C_CompoundPathItem_x3E__15_" class="st0" d="M139.1,119.4h4.1c0.5,0,1,0.1,1.4,0.2c0.4,0.1,0.8,0.3,1.1,0.5   c0.3,0.2,0.6,0.5,0.7,0.8c0.2,0.3,0.3,0.7,0.3,1.2c0,0.6-0.2,1.1-0.6,1.5c-0.4,0.4-0.9,0.7-1.5,0.9v0c0.4,0,0.7,0.1,1,0.3   c0.3,0.1,0.6,0.3,0.8,0.6c0.2,0.2,0.4,0.5,0.5,0.8c0.1,0.3,0.2,0.7,0.2,1c0,0.5-0.1,0.9-0.3,1.3c-0.2,0.4-0.5,0.7-0.9,0.9   c-0.4,0.3-0.8,0.4-1.3,0.6c-0.5,0.1-1,0.2-1.6,0.2h-4V119.4z M140.7,123.9h2.2c0.3,0,0.6,0,0.8-0.1c0.3-0.1,0.5-0.1,0.7-0.3   c0.2-0.1,0.4-0.3,0.5-0.5c0.1-0.2,0.2-0.5,0.2-0.7c0-0.4-0.2-0.8-0.4-1.1c-0.3-0.3-0.8-0.5-1.4-0.5h-2.5V123.9z M140.7,128.9h2.3   c0.2,0,0.5,0,0.8-0.1c0.3,0,0.6-0.1,0.8-0.3c0.3-0.1,0.5-0.3,0.6-0.6c0.2-0.2,0.3-0.5,0.3-0.9c0-0.6-0.2-1.1-0.7-1.4   c-0.5-0.3-1.1-0.5-1.8-0.5h-2.4V128.9z"></path>
	<a>
		<polygon id="type__x3C_PathItem_x3E__65_" class="st0" points="149.5,119.4 151.1,119.4 151.1,128.8 156.5,128.8 156.5,130.2     149.5,130.2   "></polygon>
	</a>
	<a>
		<rect id="type__x3C_PathItem_x3E__64_" x="158" y="119.4" class="st0" width="1.6" height="10.8"></rect>
	</a>
	<a>
		<polygon id="type__x3C_PathItem_x3E__63_" class="st0" points="162.6,119.4 170.2,119.4 170.2,120.8 164.2,120.8 164.2,124     169.8,124 169.8,125.4 164.2,125.4 164.2,128.8 170.5,128.8 170.5,130.2 162.6,130.2   "></polygon>
	</a>
	<a>
		<path id="type__x3C_PathItem_x3E__62_" class="st0" d="M173,128c0.3,0.4,0.7,0.7,1.1,0.9c0.4,0.2,0.9,0.3,1.4,0.3    c0.3,0,0.5,0,0.8-0.1c0.3-0.1,0.5-0.2,0.8-0.3c0.2-0.2,0.4-0.3,0.6-0.6c0.1-0.2,0.2-0.5,0.2-0.8c0-0.4-0.1-0.7-0.4-1    c-0.3-0.2-0.6-0.4-1.1-0.6c-0.4-0.1-0.9-0.3-1.4-0.4c-0.5-0.1-1-0.3-1.4-0.6c-0.4-0.2-0.8-0.6-1.1-1c-0.3-0.4-0.4-1-0.4-1.7    c0-0.3,0.1-0.7,0.2-1c0.2-0.4,0.4-0.7,0.7-1c0.3-0.3,0.7-0.5,1.2-0.7c0.5-0.2,1.1-0.3,1.8-0.3c0.6,0,1.3,0.1,1.8,0.2    c0.6,0.2,1.1,0.5,1.5,1l-1.3,1.1c-0.2-0.3-0.5-0.5-0.8-0.7c-0.4-0.2-0.8-0.3-1.2-0.3c-0.4,0-0.8,0.1-1.1,0.2s-0.5,0.2-0.7,0.4    c-0.2,0.2-0.3,0.4-0.4,0.5c-0.1,0.2-0.1,0.4-0.1,0.5c0,0.5,0.1,0.8,0.4,1.1c0.3,0.2,0.6,0.4,1.1,0.6c0.4,0.2,0.9,0.3,1.4,0.4    c0.5,0.1,1,0.3,1.4,0.5c0.4,0.2,0.8,0.5,1.1,0.9c0.3,0.4,0.4,0.9,0.4,1.5c0,0.5-0.1,1-0.3,1.4s-0.5,0.8-0.9,1.1    c-0.4,0.3-0.8,0.5-1.3,0.7c-0.5,0.2-1,0.2-1.6,0.2c-0.8,0-1.5-0.1-2.1-0.4c-0.7-0.2-1.2-0.6-1.6-1.1L173,128z"></path>
	</a>
</g>
<g>
	<path class="st2" d="M182,121.4c0-0.3,0.1-0.6,0.2-0.8s0.3-0.5,0.4-0.7c0.2-0.2,0.4-0.3,0.7-0.4c0.3-0.1,0.5-0.2,0.8-0.2   s0.6,0.1,0.8,0.2c0.3,0.1,0.5,0.3,0.7,0.4c0.2,0.2,0.3,0.4,0.4,0.7c0.1,0.3,0.2,0.5,0.2,0.8c0,0.3-0.1,0.6-0.2,0.8   c-0.1,0.3-0.3,0.5-0.4,0.7c-0.2,0.2-0.4,0.3-0.7,0.4c-0.3,0.1-0.5,0.2-0.8,0.2s-0.6-0.1-0.8-0.2c-0.3-0.1-0.5-0.3-0.7-0.4   c-0.2-0.2-0.3-0.4-0.4-0.7C182,121.9,182,121.7,182,121.4z M182.3,121.4c0,0.3,0,0.5,0.1,0.7c0.1,0.2,0.2,0.4,0.4,0.6   c0.2,0.2,0.3,0.3,0.5,0.4c0.2,0.1,0.4,0.1,0.7,0.1c0.2,0,0.5,0,0.7-0.1c0.2-0.1,0.4-0.2,0.5-0.4c0.2-0.2,0.3-0.3,0.4-0.6   c0.1-0.2,0.1-0.5,0.1-0.7c0-0.2,0-0.5-0.1-0.7c-0.1-0.2-0.2-0.4-0.4-0.6c-0.2-0.2-0.3-0.3-0.5-0.4c-0.2-0.1-0.4-0.1-0.7-0.1   c-0.2,0-0.5,0-0.7,0.1c-0.2,0.1-0.4,0.2-0.5,0.4c-0.2,0.2-0.3,0.3-0.4,0.6C182.4,120.9,182.3,121.1,182.3,121.4z M183.3,120.2h0.9   c0.6,0,0.8,0.2,0.8,0.7c0,0.2-0.1,0.4-0.2,0.5c-0.1,0.1-0.3,0.2-0.5,0.2l0.7,1.1h-0.4l-0.7-1h-0.4v1h-0.4V120.2z M183.6,121.2h0.4   c0.1,0,0.2,0,0.2,0c0.1,0,0.1,0,0.2,0c0.1,0,0.1-0.1,0.1-0.1c0-0.1,0.1-0.1,0.1-0.2c0-0.1,0-0.1-0.1-0.2c0-0.1-0.1-0.1-0.1-0.1   c-0.1,0-0.1,0-0.2-0.1c-0.1,0-0.1,0-0.2,0h-0.5V121.2z"></path>
</g>
<g>
	<path class="st0" d="M277.5,70.8c-3.9-6.5-7.8-13-11.6-19.5c-0.4-0.7-0.9-0.9-1.7-0.9c-3.9,0-7.8,0-11.7,0c-3.9,0-7.7,0-11.6,0   c-0.9,0-1.4,0.3-1.8,1.1c-3.9,6.6-7.8,13.1-11.7,19.6c-0.2,0.4-0.2,1.1,0,1.5c3.9,6.6,7.8,13.1,11.7,19.7c0.5,0.8,1,1,1.9,1   c7.7,0,15.4,0,23.2,0c0.9,0,1.3-0.3,1.8-1c3.9-6.6,7.8-13.1,11.7-19.6C278,71.9,277.9,71.4,277.5,70.8 M252.3,80.5   c-5.2-0.1-9.5-4.2-9.5-9.1c0-4.9,4.5-8.9,9.9-8.8c5.2,0.1,9.5,4.2,9.4,9.1C262,76.6,257.6,80.6,252.3,80.5"></path>
</g>
</svg>
